# xmcd
#
# Track frame offsets:
#	150
#	13755
#	28382
#	43307
#	57030
#	71885
#	87557
#	100830
#	113660
#	127835
#	141705
#	155505
#	165260
#	178792
#	193380
#	206802
#
# Disc length: 2962 seconds
#
# Revision: 0
# Processed by: cddbd v1.4PL0 Copyright (c) Steve Scherf et al.
# Submitted via: audiograbber 1.80.04
#
DISCID=f10b9010
DTITLE=Billie Holiday - 16 Most Requested Songs
DYEAR=1993
DGENRE=Blues
TTITLE0=Miss Brown To You
TTITLE1=If You Were Mine
TTITLE2=These Foolish Things
TTITLE3=The Way You Look Tonight
TTITLE4=Pennies From Heaven
TTITLE5=I Can't Give You Anything But Love
TTITLE6=I've Got My Love To Keep Me Warm
TTITLE7=Why Was I Born?
TTITLE8=Carelessly
TTITLE9=Easy Living
TTITLE10=My Man
TTITLE11=I'm Gonna Lock My Heart and Throw Away The Key
TTITLE12=Body And Soul
TTITLE13=Gloomy Sunday
TTITLE14=God Bless The Child
TTITLE15=I'm A Fool To Want You
EXTD=
EXTT0=
EXTT1=
EXTT2=
EXTT3=
EXTT4=
EXTT5=
EXTT6=
EXTT7=
EXTT8=
EXTT9=
EXTT10=
EXTT11=
EXTT12=
EXTT13=
EXTT14=
EXTT15=
PLAYORDER=
